<?xml version="1.0" encoding="utf-8"?>
<!-- Generator: Adobe Illustrator 21.0.0, SVG Export Plug-In . SVG Version: 6.00 Build 0)  -->
<svg version="1.1" id="Layer_1" xmlns="http://www.w3.org/2000/svg" xmlns:xlink="http://www.w3.org/1999/xlink" x="0px" y="0px"
	 viewBox="0 0 1000 1000" style="enable-background:new 0 0 1000 1000;" xml:space="preserve">
<style type="text/css">
	.st0{fill:none;stroke:#000000;stroke-width:2;stroke-miterlimit:10;}
	.st1{fill:none;}
	.st2{font-family:'Arial-BoldMT';}
	.st3{font-size:60px;}
	.st4{font-family:'KozGoPr6N-Regular-90ms-RKSJ-H';}
	.st5{font-size:30px;}
	.st6{font-family:'ArialMT';}
	.st7{font-size:20px;}
</style>
<g id="XMLID_93_">
	<g id="XMLID_33_">
		<path id="XMLID_92_" d="M314.3,223.1c3.6-2.4,7.2-4.8,10.9-7l-13.9-21.6c-3.7,2.3-7.3,4.6-10.9,7L314.3,223.1z"/>
		<path id="XMLID_91_" d="M224.5,269.9l19.4,16.8c2.8-3.3,5.6-6.6,8.5-9.8L233,260C230.1,263.3,227.3,266.5,224.5,269.9z"/>
		<path id="XMLID_90_" d="M169.1,459c0.5-4.3,1.2-8.6,1.8-12.9l-25.4-3.7c-0.7,4.3-1.3,8.6-1.8,12.9L169.1,459z"/>
		<path id="XMLID_89_" d="M194.1,367.4c1.7-4,3.5-7.9,5.4-11.8l-23.3-10.7c-1.9,3.9-3.7,7.8-5.4,11.8L194.1,367.4z"/>
		<path id="XMLID_88_" d="M399.8,182c4.1-1.3,8.3-2.5,12.5-3.6l-7.2-24.6c-4.2,1.1-8.3,2.4-12.5,3.7L399.8,182z"/>
		<path id="XMLID_87_" d="M171,553.9c-0.7-4.3-1.3-8.6-1.8-12.9l-25.4,3.7c0.5,4.3,1.1,8.6,1.8,12.9L171,553.9z"/>
		<path id="XMLID_86_" d="M823.9,344.9l-23.3,10.7c1.9,3.9,3.7,7.8,5.4,11.8l23.3-10.7C827.6,352.8,825.7,348.8,823.9,344.9z"/>
		<path id="XMLID_85_" d="M747.6,276.8c2.9,3.2,5.7,6.5,8.5,9.8l19.4-16.8c-2.8-3.3-5.6-6.6-8.5-9.8L747.6,276.8z"/>
		<path id="XMLID_84_" d="M493.5,141.1v25.7c2.2,0,4.3-0.1,6.5-0.1s4.3,0,6.5,0.1v-25.7c-2.2,0-4.3-0.1-6.5-0.1
			S495.7,141,493.5,141.1z"/>
		<path id="XMLID_83_" d="M587.7,178.3c4.2,1.1,8.4,2.3,12.5,3.6l7.2-24.6c-4.1-1.3-8.3-2.5-12.5-3.7L587.7,178.3z"/>
		<path id="XMLID_82_" d="M674.7,216.1c3.7,2.3,7.3,4.6,10.9,7l13.9-21.6c-3.6-2.4-7.2-4.8-10.9-7L674.7,216.1z"/>
		<path id="XMLID_57_" d="M506.5,858.9v-25.7c-2.2,0-4.3,0.1-6.5,0.1s-4.3,0-6.5-0.1v25.7c2.2,0,4.3,0.1,6.5,0.1
			S504.3,859,506.5,858.9z"/>
		<path id="XMLID_55_" d="M775.5,730.1l-19.4-16.8c-2.8,3.3-5.6,6.6-8.5,9.8L767,740C769.9,736.7,772.7,733.5,775.5,730.1z"/>
		<path id="XMLID_53_" d="M685.7,776.9c-3.6,2.4-7.2,4.8-10.9,7l13.9,21.6c3.7-2.3,7.3-4.6,10.9-7L685.7,776.9z"/>
		<path id="XMLID_51_" d="M805.9,632.6c-1.7,4-3.5,7.9-5.4,11.8l23.3,10.7c1.9-3.9,3.7-7.8,5.4-11.8L805.9,632.6z"/>
		<path id="XMLID_47_" d="M829,446.1c0.7,4.3,1.3,8.6,1.8,12.9l25.4-3.7c-0.5-4.3-1.1-8.6-1.8-12.9L829,446.1z"/>
		<path id="XMLID_45_" d="M830.9,541c-0.5,4.3-1.2,8.6-1.8,12.9l25.4,3.7c0.7-4.3,1.3-8.6,1.8-12.9L830.9,541z"/>
		<path id="XMLID_43_" d="M252.4,723.2c-2.9-3.2-5.7-6.5-8.5-9.8l-19.4,16.8c2.8,3.3,5.6,6.6,8.5,9.8L252.4,723.2z"/>
		<path id="XMLID_41_" d="M600.9,817.8c-4.1,1.3-8.3,2.5-12.5,3.7l7.3,24.6c4.2-1.2,8.3-2.4,12.5-3.7L600.9,817.8z"/>
		<path id="XMLID_39_" d="M199.5,644.4c-1.9-3.9-3.7-7.8-5.4-11.8l-23.3,10.7c1.7,4,3.5,7.9,5.4,11.8L199.5,644.4z"/>
		<path id="XMLID_37_" d="M325.3,783.9c-3.7-2.3-7.3-4.6-10.9-7l-13.9,21.6c3.6,2.4,7.2,4.8,10.9,7L325.3,783.9z"/>
		<path id="XMLID_35_" d="M412.3,821.7c-4.2-1.1-8.4-2.3-12.5-3.6l-7.2,24.6c4.1,1.3,8.3,2.5,12.5,3.7L412.3,821.7z"/>
	</g>
	<circle id="XMLID_16_" class="st0" cx="500" cy="500" r="359"/>
	<circle id="XMLID_14_" class="st0" cx="500" cy="500" r="333.4"/>
</g>
<g id="XMLID_101_">
	<circle id="XMLID_98_" class="st1" cx="500" cy="251.2" r="40"/>
	<text id="XMLID_99_" transform="matrix(1 0 0 1 479.9897 273.2217)" class="st2 st3">X</text>
</g>
<g id="XMLID_103_">
	<circle id="XMLID_106_" class="st1" cx="500" cy="182" r="41.8"/>
	<text id="XMLID_105_" transform="matrix(1 0 0 1 454.9998 204.9368)" class="st4 st5">破壊力</text>
</g>
<g id="XMLID_107_">
	
		<ellipse id="XMLID_109_" transform="matrix(0.866 -0.5 0.5 0.866 -66.5027 433.3726)" class="st1" cx="775.4" cy="340.8" rx="41.8" ry="41.8"/>
	<text id="XMLID_108_" transform="matrix(0.5 0.866 -0.866 0.5 725.532 300.31)" class="st4 st5">スピード</text>
</g>
<g id="XMLID_110_">
	
		<ellipse id="XMLID_112_" transform="matrix(0.5 -0.866 0.866 0.5 -183.0118 1001.0551)" class="st1" cx="775.4" cy="659" rx="41.8" ry="41.8"/>
	<text id="XMLID_111_" transform="matrix(0.5 -0.866 0.866 0.5 739.5891 707.6065)" class="st4 st5">射程距離</text>
</g>
<g id="XMLID_113_">
	<circle id="XMLID_115_" class="st1" cx="500" cy="817.8" r="41.8"/>
	<text id="XMLID_114_" transform="matrix(1 0 0 1 454.9999 811.0541)" class="st4 st5">持続力</text>
</g>
<g id="XMLID_116_">
	
		<ellipse id="XMLID_118_" transform="matrix(0.866 -0.5 0.5 0.866 -299.5223 200.6017)" class="st1" cx="224.6" cy="659.2" rx="41.8" ry="41.8"/>
	<text id="XMLID_117_" transform="matrix(0.5 0.866 -0.866 0.5 192.9109 590.8899)" class="st4 st5">精密動作性</text>
</g>
<g id="XMLID_119_">
	
		<ellipse id="XMLID_121_" transform="matrix(0.5 -0.866 0.866 0.5 -182.8424 364.8718)" class="st1" cx="224.6" cy="340.8" rx="41.8" ry="41.8"/>
	<text id="XMLID_120_" transform="matrix(0.5 -0.866 0.866 0.5 221.9675 391.2431)" class="st4 st5">成長性</text>
</g>
<g id="XMLID_124_">
	<circle id="XMLID_127_" class="st1" cx="715.5" cy="375.7" r="40"/>
	<text id="XMLID_126_" transform="matrix(1 0 0 1 695.5088 397.6514)" class="st2 st3">X</text>
</g>
<g id="XMLID_129_">
	<circle id="XMLID_131_" class="st1" cx="715.5" cy="624.5" r="40"/>
	<text id="XMLID_130_" transform="matrix(1 0 0 1 695.5088 646.5107)" class="st2 st3">X</text>
</g>
<g id="XMLID_133_">
	<circle id="XMLID_135_" class="st1" cx="500" cy="748.9" r="40"/>
	<text id="XMLID_134_" transform="matrix(1 0 0 1 479.9897 770.9404)" class="st2 st3">X</text>
</g>
<g id="XMLID_136_">
	<circle id="XMLID_138_" class="st1" cx="284.5" cy="624.5" r="40"/>
	<text id="XMLID_137_" transform="matrix(1 0 0 1 264.4717 646.5107)" class="st2 st3">X</text>
</g>
<g id="XMLID_139_">
	<circle id="XMLID_141_" class="st1" cx="284.5" cy="375.7" r="40"/>
	<text id="XMLID_140_" transform="matrix(1 0 0 1 264.4717 397.6514)" class="st2 st3">X</text>
</g>
<line id="XMLID_158_" class="st0" x1="1820.9" y1="-538.7" x2="1809.1" y2="-538.7"/>
<line id="XMLID_157_" class="st0" x1="1820.9" y1="-503.2" x2="1809.1" y2="-503.2"/>
<line id="XMLID_156_" class="st0" x1="1820.9" y1="-467.6" x2="1809.1" y2="-467.6"/>
<line id="XMLID_155_" class="st0" x1="1820.9" y1="-432" x2="1809.1" y2="-432"/>
<line id="XMLID_153_" class="st0" x1="1820.9" y1="-396.5" x2="1809.1" y2="-396.5"/>
<line id="XMLID_146_" class="st0" x1="1815" y1="-574.3" x2="1815" y2="-360.9"/>
<g id="XMLID_187_">
	
		<ellipse id="XMLID_94_" transform="matrix(0.5 -0.866 0.866 0.5 -183.0129 683.0123)" class="st0" cx="500" cy="500" rx="213.3" ry="213.3"/>
	<line id="XMLID_143_" class="st0" x1="651" y1="594" x2="656.9" y2="583.8"/>
	<line id="XMLID_144_" class="st0" x1="620.2" y1="576.2" x2="626.1" y2="566"/>
	<line id="XMLID_145_" class="st0" x1="589.4" y1="558.4" x2="595.3" y2="548.2"/>
	<line id="XMLID_148_" class="st0" x1="558.6" y1="540.7" x2="564.5" y2="530.4"/>
	<line id="XMLID_147_" class="st0" x1="527.8" y1="522.9" x2="533.7" y2="512.7"/>
	<line id="XMLID_152_" class="st0" x1="684.8" y1="606.7" x2="500" y2="500"/>
	<line id="XMLID_164_" class="st0" x1="656.9" y1="416.2" x2="651" y2="406"/>
	<line id="XMLID_163_" class="st0" x1="626.1" y1="434" x2="620.2" y2="423.8"/>
	<line id="XMLID_162_" class="st0" x1="595.3" y1="451.8" x2="589.4" y2="441.6"/>
	<line id="XMLID_161_" class="st0" x1="564.5" y1="469.6" x2="558.6" y2="459.3"/>
	<line id="XMLID_160_" class="st0" x1="533.7" y1="487.3" x2="527.8" y2="477.1"/>
	<line id="XMLID_159_" class="st0" x1="684.8" y1="393.3" x2="500" y2="500"/>
	<line id="XMLID_169_" class="st0" x1="505.9" y1="322.2" x2="494.1" y2="322.2"/>
	<line id="XMLID_168_" class="st0" x1="505.9" y1="357.7" x2="494.1" y2="357.7"/>
	<line id="XMLID_167_" class="st0" x1="505.9" y1="393.3" x2="494.1" y2="393.3"/>
	<line id="XMLID_166_" class="st0" x1="505.9" y1="428.8" x2="494.1" y2="428.8"/>
	<line id="XMLID_165_" class="st0" x1="505.9" y1="464.4" x2="494.1" y2="464.4"/>
	<line id="XMLID_149_" class="st0" x1="500" y1="286.6" x2="500" y2="500"/>
	<line id="XMLID_186_" class="st0" x1="349" y1="406" x2="343.1" y2="416.2"/>
	<line id="XMLID_185_" class="st0" x1="379.8" y1="423.8" x2="373.9" y2="434"/>
	<line id="XMLID_184_" class="st0" x1="410.6" y1="441.6" x2="404.7" y2="451.8"/>
	<line id="XMLID_183_" class="st0" x1="441.4" y1="459.3" x2="435.5" y2="469.6"/>
	<line id="XMLID_182_" class="st0" x1="472.2" y1="477.1" x2="466.3" y2="487.3"/>
	<line id="XMLID_181_" class="st0" x1="315.2" y1="393.3" x2="500" y2="500"/>
	<line id="XMLID_180_" class="st0" x1="343.1" y1="583.8" x2="349" y2="594"/>
	<line id="XMLID_179_" class="st0" x1="373.9" y1="566" x2="379.8" y2="576.2"/>
	<line id="XMLID_178_" class="st0" x1="404.7" y1="548.2" x2="410.6" y2="558.4"/>
	<line id="XMLID_177_" class="st0" x1="435.5" y1="530.4" x2="441.4" y2="540.7"/>
	<line id="XMLID_176_" class="st0" x1="466.3" y1="512.7" x2="472.2" y2="522.9"/>
	<line id="XMLID_175_" class="st0" x1="315.2" y1="606.7" x2="500" y2="500"/>
	<line id="XMLID_174_" class="st0" x1="494.1" y1="677.8" x2="505.9" y2="677.8"/>
	<line id="XMLID_173_" class="st0" x1="494.1" y1="642.3" x2="505.9" y2="642.3"/>
	<line id="XMLID_172_" class="st0" x1="494.1" y1="606.7" x2="505.9" y2="606.7"/>
	<line id="XMLID_171_" class="st0" x1="494.1" y1="571.2" x2="505.9" y2="571.2"/>
	<line id="XMLID_170_" class="st0" x1="494.1" y1="535.6" x2="505.9" y2="535.6"/>
	<line id="XMLID_96_" class="st0" x1="500" y1="713.4" x2="500" y2="500"/>
</g>
<g id="XMLID_195_">
	<text id="XMLID_189_" transform="matrix(1 0 0 1 511.8999 322.2261)" class="st6 st7">A</text>
	<text id="XMLID_191_" transform="matrix(1 0 0 1 511.8995 357.7842)" class="st6 st7">B</text>
	<text id="XMLID_192_" transform="matrix(1 0 0 1 511.8996 393.3777)" class="st6 st7">C</text>
	<text id="XMLID_193_" transform="matrix(1 0 0 1 511.8995 428.8999)" class="st6 st7">D</text>
	<text id="XMLID_194_" transform="matrix(1 0 0 1 511.8993 464.3546)" class="st6 st7">E</text>
</g>
</svg>
